<?xml version="1.0" standalone="no"?>
<!DOCTYPE svg PUBLIC "-//W3C//DTD SVG 20010904//EN"
 "http://www.w3.org/TR/2001/REC-SVG-20010904/DTD/svg10.dtd">
<svg version="1.0" xmlns="http://www.w3.org/2000/svg"
 width="1276.000000pt" height="1276.000000pt" viewBox="0 0 1276.000000 1276.000000"
 preserveAspectRatio="xMidYMid meet">
<metadata>
Created by potrace 1.11, written by Peter Selinger 2001-2013
</metadata>
<g transform="translate(0.000000,1276.000000) scale(0.100000,-0.100000)"
fill="#000000" stroke="none">
<path d="M6029 12746 c-2 -3 -31 -7 -64 -9 -33 -3 -60 -6 -60 -7 0 -1 -11 -3
-25 -5 -45 -5 -105 -17 -113 -22 -4 -2 -20 -7 -35 -9 -132 -24 -385 -143 -547
-258 -190 -135 -403 -374 -490 -551 -11 -22 -23 -41 -27 -43 -5 -2 -8 -7 -8
-12 0 -4 -12 -34 -27 -66 -15 -33 -28 -63 -29 -69 -1 -5 -9 -27 -18 -47 -12
-27 -23 -38 -39 -39 -23 -1 -36 -2 -107 -13 -88 -14 -103 -17 -114 -24 -6 -3
-22 -8 -36 -10 -65 -9 -280 -103 -377 -165 -24 -15 -47 -27 -52 -27 -5 0 -11
-3 -13 -7 -1 -5 -28 -27 -58 -49 -229 -172 -394 -382 -514 -656 -14 -32 -22
-58 -19 -58 3 0 1 -6 -4 -12 -11 -13 -49 -150 -57 -203 -2 -16 -5 -30 -6 -30
-1 0 -3 -11 -4 -25 -2 -14 -7 -56 -11 -95 -14 -125 -5 -329 20 -443 10 -45 13
-58 25 -102 27 -106 108 -306 137 -341 7 -8 13 -19 13 -24 0 -13 118 -185 156
-228 40 -44 41 -50 10 -70 -70 -46 -286 -293 -279 -319 2 -4 -1 -8 -5 -8 -5 0
-24 -30 -43 -67 -19 -38 -38 -71 -43 -74 -5 -4 -5 -12 -2 -18 4 -6 2 -11 -3
-11 -6 0 -11 -5 -11 -11 0 -6 -6 -25 -14 -42 -8 -18 -22 -59 -31 -92 -9 -33
-19 -67 -22 -75 -3 -8 -8 -24 -10 -35 -2 -11 -6 -33 -9 -50 -18 -96 -24 -298
-12 -405 11 -91 67 -287 91 -317 5 -7 7 -13 3 -13 -6 0 51 -114 93 -187 73
-128 239 -297 391 -400 177 -119 427 -206 627 -218 28 -2 57 -6 64 -11 8 -4
10 -3 5 4 -5 9 0 9 18 2 15 -5 28 -6 31 0 3 6 15 6 30 0 14 -5 25 -6 25 -2 0
4 17 7 38 8 48 1 207 27 207 34 0 1 11 4 25 6 42 8 164 52 231 84 l64 30 6
-32 c3 -18 1 -39 -4 -45 -6 -8 -6 -13 1 -13 7 0 8 -10 2 -29 -4 -15 -4 -34 0
-41 5 -7 5 -23 1 -34 -3 -12 -6 -32 -5 -46 7 -82 6 -91 -13 -125 -6 -11 -37
-69 -68 -130 -32 -60 -69 -130 -82 -155 -14 -25 -41 -74 -61 -110 -20 -36 -55
-98 -79 -138 -24 -41 -43 -76 -43 -79 0 -3 -26 -51 -57 -106 -32 -56 -58 -104
-58 -107 0 -3 -8 -16 -16 -30 -33 -52 -85 -147 -103 -185 -11 -22 -22 -42 -25
-45 -3 -3 -21 -34 -40 -70 -19 -36 -41 -73 -49 -82 -8 -10 -11 -18 -7 -18 4 0
2 -8 -6 -17 -8 -10 -24 -36 -36 -58 -12 -22 -33 -60 -46 -85 -14 -25 -36 -65
-49 -90 -12 -25 -25 -47 -28 -50 -3 -3 -18 -32 -35 -65 -16 -33 -33 -62 -36
-65 -4 -3 -21 -32 -38 -65 -17 -33 -42 -78 -54 -100 -13 -22 -41 -74 -63 -115
-21 -41 -42 -77 -45 -80 -3 -3 -23 -39 -45 -80 -21 -41 -42 -76 -46 -78 -4 -2
-8 -9 -8 -16 0 -6 -8 -23 -17 -36 -10 -14 -18 -31 -20 -39 -1 -8 -6 -17 -11
-20 -4 -3 -19 -26 -31 -51 -22 -43 -36 -69 -96 -175 -15 -28 -43 -79 -62 -114
-19 -35 -43 -78 -54 -95 -10 -17 -30 -56 -45 -86 -15 -30 -30 -57 -33 -60 -3
-3 -13 -18 -21 -35 -8 -16 -25 -45 -37 -64 -13 -18 -21 -37 -18 -41 3 -5 1
-10 -3 -12 -7 -3 -33 -45 -89 -148 -11 -19 -53 -96 -93 -170 -41 -74 -76 -137
-80 -140 -3 -3 -13 -21 -22 -40 -10 -19 -36 -66 -58 -105 -43 -76 -57 -105
-58 -119 0 -5 -5 -12 -10 -15 -9 -6 -36 -53 -98 -171 -16 -30 -31 -57 -34 -60
-4 -3 -16 -25 -29 -50 -24 -46 -52 -98 -115 -208 -20 -35 -36 -68 -36 -73 0
-5 -5 -9 -11 -9 -5 0 -8 -4 -5 -9 4 -5 3 -11 -1 -13 -5 -1 -21 -30 -38 -63
-16 -33 -33 -62 -36 -65 -3 -3 -23 -39 -45 -80 -21 -41 -41 -77 -44 -80 -3 -3
-16 -27 -30 -55 -14 -27 -27 -52 -30 -55 -3 -3 -14 -21 -23 -40 -10 -19 -26
-48 -36 -65 -10 -16 -37 -68 -62 -115 -24 -47 -46 -87 -49 -90 -3 -3 -16 -34
-29 -70 -85 -234 -78 -462 22 -680 20 -44 95 -170 107 -180 3 -3 14 -16 23
-30 51 -75 234 -235 327 -286 19 -10 37 -21 40 -24 5 -5 79 -42 90 -45 3 -1
19 -7 35 -14 45 -20 129 -45 139 -42 4 1 14 -3 21 -9 8 -7 1095 -9 3426 -7
2965 3 3452 6 3467 17 1 2 5 3 10 4 46 12 117 38 128 47 8 6 14 9 14 6 0 -3
28 10 63 29 34 19 70 37 80 41 9 3 17 9 17 14 0 5 5 9 10 9 38 0 248 197 325
305 63 88 141 251 146 307 0 4 6 29 13 55 17 65 18 223 1 303 -22 109 -23 111
-51 185 -4 11 -8 22 -8 25 -1 3 -44 84 -96 180 -52 96 -96 181 -98 187 -2 7
-8 13 -14 13 -6 0 -8 3 -5 6 4 4 -2 19 -12 33 -10 14 -36 60 -58 101 -22 41
-57 104 -77 140 -21 36 -40 73 -43 83 -3 9 -9 17 -14 17 -5 0 -9 7 -9 15 0 9
-5 21 -10 28 -6 7 -37 59 -69 117 -91 166 -117 213 -138 250 -11 19 -36 64
-55 100 -19 36 -59 108 -88 160 -29 52 -66 120 -83 150 -16 30 -41 75 -55 100
-14 25 -34 61 -44 80 -10 19 -33 61 -51 92 -18 31 -43 76 -56 100 -29 53 -76
139 -106 194 -42 76 -50 89 -64 107 -8 9 -11 17 -6 17 4 0 3 6 -3 13 -5 6 -22
33 -36 59 -14 27 -38 69 -52 95 -15 27 -40 73 -57 103 -16 30 -44 80 -62 111
-18 31 -36 66 -40 78 -3 11 -10 21 -15 21 -4 0 -11 11 -14 24 -3 14 -12 31
-19 38 -6 7 -25 38 -41 68 -75 144 -119 223 -127 230 -3 3 -11 20 -19 38 -7
19 -18 39 -24 46 -6 6 -21 32 -34 56 -53 101 -78 146 -89 158 -7 7 -13 22 -13
32 0 10 -4 20 -8 22 -10 4 -104 174 -102 184 1 4 -3 10 -8 13 -5 3 -19 26 -32
51 -12 25 -29 53 -38 63 -8 9 -12 17 -8 17 4 0 -1 12 -12 28 -11 15 -37 61
-59 102 -22 41 -59 107 -82 147 -22 40 -41 77 -41 83 0 5 -5 10 -11 10 -5 0
-8 4 -5 9 3 5 -1 14 -9 21 -8 6 -19 27 -25 46 -6 19 -16 34 -21 34 -5 0 -9 4
-9 9 0 4 -19 41 -41 82 -51 91 -112 202 -137 249 -29 55 -46 84 -61 103 -8 9
-11 17 -6 17 4 0 3 6 -3 13 -14 18 -76 129 -170 308 -51 98 -62 134 -49 157 5
6 4 12 0 12 -12 0 -10 213 2 222 7 5 7 8 0 8 -12 0 -13 139 -2 157 4 6 4 14
-1 17 -9 6 -8 47 2 64 4 7 3 12 -1 12 -12 0 -10 213 2 222 7 5 7 8 0 8 -12 0
-13 139 -2 157 4 6 4 14 -1 17 -9 6 -8 47 2 64 4 7 3 12 -1 12 -10 0 -10 131
1 148 4 7 3 12 -1 12 -12 0 -10 213 2 222 7 5 7 8 0 8 -12 0 -13 139 -2 157 4
6 4 14 -1 17 -9 6 -8 47 2 64 4 7 3 12 -1 12 -12 0 -10 213 2 222 7 5 7 8 0 8
-12 0 -13 139 -2 157 4 6 4 14 -1 17 -9 6 -8 47 2 64 4 7 3 12 -1 12 -12 0
-10 213 2 222 7 5 6 8 0 8 -6 0 -11 12 -10 28 l0 27 170 -2 c93 -1 188 2 211
7 23 5 56 11 75 14 43 5 230 65 247 78 6 6 12 7 12 2 0 -5 4 -4 8 1 4 6 34 23
67 40 85 42 155 86 155 98 0 6 3 8 6 4 4 -3 12 -1 19 6 7 7 31 27 53 45 85 69
180 174 245 270 40 59 98 167 96 178 0 4 4 10 9 13 5 3 17 31 27 61 10 30 21
60 25 65 5 6 11 24 14 40 3 17 12 59 21 95 35 143 37 355 5 525 -7 33 -13 65
-15 70 -1 6 -3 12 -3 15 -1 3 -11 32 -22 65 -12 33 -23 65 -24 70 -11 44 -121
246 -138 253 -4 2 -8 10 -8 17 0 8 -6 18 -13 22 -7 4 -20 20 -30 35 -17 27
-166 179 -203 208 -35 27 -174 120 -180 120 -3 0 -20 10 -37 22 -18 13 -32 21
-32 19 0 -2 -22 6 -49 17 -27 12 -54 22 -60 22 -7 0 -16 4 -22 9 -11 11 -199
58 -269 67 -65 9 -228 11 -286 4 l-46 -6 -22 75 c-23 79 -33 103 -82 207 -16
34 -29 67 -29 73 0 6 -4 11 -9 11 -5 0 -11 8 -15 18 -8 24 -41 80 -60 101 -9
10 -16 22 -16 27 0 5 -14 24 -30 43 -17 18 -30 36 -30 40 0 6 -51 63 -130 146
-40 42 -79 78 -163 150 -12 10 -142 98 -182 122 -26 16 -208 107 -217 109 -5
1 -10 3 -13 4 -3 1 -8 3 -12 4 -5 1 -18 7 -30 14 -13 7 -23 10 -23 7 0 -3 -13
1 -30 10 -16 9 -30 13 -30 11 0 -3 -16 2 -35 10 -19 8 -35 12 -35 9 0 -2 -12
0 -27 6 -16 6 -37 12 -48 13 -11 2 -38 6 -60 10 -22 4 -56 9 -75 12 -44 7
-345 16 -351 10z"/>
</g>
</svg>
