<?xml version="1.0" encoding="UTF-8" standalone="no"?>
<svg
   xmlns:dc="http://purl.org/dc/elements/1.1/"
   xmlns:cc="http://creativecommons.org/ns#"
   xmlns:rdf="http://www.w3.org/1999/02/22-rdf-syntax-ns#"
   xmlns:svg="http://www.w3.org/2000/svg"
   xmlns="http://www.w3.org/2000/svg"
   xmlns:sodipodi="http://sodipodi.sourceforge.net/DTD/sodipodi-0.dtd"
   xmlns:inkscape="http://www.inkscape.org/namespaces/inkscape"
   id="svg3287"
   sodipodi:docname="logo.svg"
   viewBox="0 0 1740.3538 730.3613"
   version="1.1"
   inkscape:version="1.0.2 (e86c8708, 2021-01-15)"
   width="1740.3538"
   height="730.36133">
  <defs
     id="defs78">
    <inkscape:path-effect
       effect="fillet_chamfer"
       id="path-effect960"
       is_visible="true"
       lpeversion="1"
       satellites_param="F,1,0,1,0,0.3,0,1 @ F,1,0,1,0,0.3,0,1 @ F,1,0,1,0,0.3,0,1 @ F,1,0,1,0,0.3,0,1"
       unit="px"
       method="auto"
       mode="F"
       radius="30"
       chamfer_steps="1"
       flexible="true"
       use_knot_distance="true"
       apply_no_radius="true"
       apply_with_radius="true"
       only_selected="false"
       hide_knots="false" />
    <inkscape:path-effect
       effect="spiro"
       id="path-effect1495"
       is_visible="true"
       lpeversion="1" />
    <inkscape:path-effect
       effect="simplify"
       id="path-effect1493"
       is_visible="true"
       lpeversion="1"
       steps="1"
       threshold="0.00146067"
       smooth_angles="360"
       helper_size="0"
       simplify_individual_paths="false"
       simplify_just_coalesce="false" />
    <inkscape:path-effect
       effect="simplify"
       id="path-effect1489"
       is_visible="true"
       lpeversion="1"
       steps="1"
       threshold="0.00146067"
       smooth_angles="360"
       helper_size="0"
       simplify_individual_paths="false"
       simplify_just_coalesce="false" />
    <inkscape:path-effect
       effect="spiro"
       id="path-effect1126"
       is_visible="true"
       lpeversion="1" />
    <inkscape:path-effect
       effect="spiro"
       id="path-effect1122"
       is_visible="true"
       lpeversion="1" />
    <inkscape:path-effect
       effect="spiro"
       id="path-effect930"
       is_visible="true"
       lpeversion="1" />
    <inkscape:path-effect
       effect="spiro"
       id="path-effect926"
       is_visible="true"
       lpeversion="1" />
    <inkscape:path-effect
       effect="spiro"
       id="path-effect913"
       is_visible="true"
       lpeversion="1" />
    <inkscape:path-effect
       effect="spiro"
       id="path-effect909"
       is_visible="true"
       lpeversion="1" />
    <inkscape:path-effect
       effect="spiro"
       id="path-effect901"
       is_visible="true"
       lpeversion="1" />
    <inkscape:path-effect
       effect="spiro"
       id="path-effect897"
       is_visible="true"
       lpeversion="1" />
  </defs>
  <sodipodi:namedview
     id="base"
     bordercolor="#666666"
     inkscape:pageshadow="2"
     inkscape:window-y="23"
     fit-margin-left="0"
     pagecolor="#ffffff"
     inkscape:window-height="1755"
     inkscape:window-maximized="1"
     inkscape:zoom="1.1368955"
     inkscape:window-x="0"
     showgrid="false"
     borderopacity="1.0"
     inkscape:current-layer="layer1"
     inkscape:cx="909.82702"
     inkscape:cy="340.78454"
     fit-margin-top="0"
     fit-margin-right="0"
     fit-margin-bottom="0"
     inkscape:window-width="3200"
     inkscape:pageopacity="0.0"
     inkscape:document-units="px"
     inkscape:document-rotation="0" />
  <g
     inkscape:groupmode="layer"
     id="layer2"
     inkscape:label="Far back"
     transform="translate(159.14166,53.27235)">
    <path
       style="display:inline;fill:#0088aa;stroke:none;stroke-width:20.6937;stroke-linecap:round;stroke-linejoin:round;stroke-miterlimit:4;stroke-dasharray:none"
       id="rect921"
       width="730.36133"
       height="730.36133"
       x="-159.14166"
       y="-53.27235"
       inkscape:path-effect="#path-effect960"
       d="m 59.966736,-53.27235 292.144534,0 a 219.1084,219.1084 45 0 1 219.1084,219.1084 v 292.14453 a 219.1084,219.1084 135 0 1 -219.1084,219.1084 H 59.966736 A 219.1084,219.1084 45 0 1 -159.14166,457.98058 V 165.83605 A 219.1084,219.1084 135 0 1 59.966736,-53.27235 Z"
       sodipodi:type="rect" />
  </g>
  <g
     inkscape:groupmode="layer"
     id="layer6"
     inkscape:label="Back"
     style="display:inline"
     transform="translate(159.15176,166.6816)">
    <path
       id="path1288-9-7"
       style="fill:#ffeeaa;fill-opacity:1;stroke:#000000;stroke-width:15.1181;stroke-linecap:round;stroke-linejoin:round;stroke-miterlimit:4;stroke-dasharray:none;stroke-opacity:1"
       d="m 203.40873,-105.85014 a 76.379753,76.379753 0 0 0 -76.19336,76.378905 76.379753,76.379753 0 0 0 76.38086,76.380855 76.379753,76.379753 0 0 0 37.51367,-9.84961 57.18211,57.18211 0 0 0 51.89844,33.18165 57.18211,57.18211 0 0 0 57.18357,-57.18165 57.18211,57.18211 0 0 0 -57.18357,-57.183589 57.18211,57.18211 0 0 0 -14.12891,1.773438 76.379753,76.379753 0 0 0 -75.2832,-63.499999 76.379753,76.379753 0 0 0 -0.1875,0 z" />
    <path
       id="path1288-9-7-5"
       style="fill:#fff6d5;fill-opacity:1;stroke:none;stroke-width:15.1181;stroke-linecap:round;stroke-linejoin:round;stroke-miterlimit:4;stroke-dasharray:none;stroke-opacity:1"
       d="m 201.56303,-81.803266 c -16.51948,0.581037 -32.54911,9.505155 -41.59571,23.365229 -5.30307,7.978414 -8.31143,17.436964 -8.70898,27.001958 2.2e-4,0.340861 -0.0395,1.12819 -0.0356,1.647656 -0.14467,13.019919 4.91611,25.945788 13.6434,35.578171 8.90564,9.882592 21.73926,16.030592 34.99256,16.976212 0.78615,0.0555 1.48362,0.0966 2.17904,0.11576 1.90693,0.0609 3.84052,0.0188 5.66219,-0.13907 3.42507,-0.2768 6.81704,-0.91511 10.12482,-1.84084 1.2683,-0.36429 2.75683,-0.82439 4.07579,-1.33411 3.23188,-1.15718 6.28526,-2.74001 9.32536,-4.31558 8.71978,-3.88613 19.8087,-2.13895 26.57346,4.71219 3.65559,3.36227 5.34781,8.15632 8.06446,12.19922 2.55476,3.58494 5.82683,6.65187 9.55273,8.99414 0.28424,0.18194 0.92585,0.5739 1.35716,0.81126 8.37144,4.82241 18.8925,5.56265 27.90776,2.14385 10.64525,-3.91808 18.92965,-13.68357 20.90065,-24.8748 1.5811,-8.04426 0.01,-16.656615 -4.3591,-23.599673 -4.46,-7.246433 -11.7734,-12.72137 -20.06538,-14.727729 -5.54923,-1.411319 -11.43347,-1.30512 -16.97359,0.09458 -6.96815,1.397792 -14.60285,-0.131948 -20.17727,-4.640039 -4.59908,-3.594094 -7.61358,-8.970311 -8.75429,-14.656666 -0.73614,-3.391149 -1.4759,-6.799079 -2.79755,-10.021244 -4.71511,-12.278411 -14.22961,-22.626707 -26.08917,-28.320552 -0.3609,-0.171219 -1.07033,-0.510647 -1.57687,-0.723308 -7.2829,-3.213549 -15.27389,-4.713911 -23.22586,-4.446614 z" />
  </g>
  <g
     id="layer1"
     inkscape:label="Layer 1"
     inkscape:groupmode="layer"
     transform="translate(-21.158237,-77.7984)"
     style="display:inline">
    <path
       id="rect2985"
       sodipodi:nodetypes="ssscscccsscccscssss"
       style="fill:#000000;stroke-width:15.1181;stroke-miterlimit:4;stroke-dasharray:none"
       inkscape:connector-curvature="0"
       d="m 333.27,244.48 c -9.0304,0 -16.342,10.519 -16.342,19.55 v 7.7384 c 0,6.3886 3.685,11.885 9.0111,14.56 -0.0798,1.0586 -0.15314,2.1275 -0.15314,3.2074 v 153.8 c -2.4178,4.5548 -4.7734,9.2986 -7.3312,14 l -132.17,239.08 c -21.284,39.127 19.219,72.395 43.071,72.395 h 330.72 c 23.851,0 64.789,-32.472 43.071,-72.395 l -132.16,-239.08 c -2.5578,-4.7019 -4.9134,-9.4456 -7.3312,-14 v -153.8 c 0,-1.0798 -0.0733,-2.1487 -0.15314,-3.2074 5.3262,-2.6758 9.0111,-8.1719 9.0111,-14.56 V 264.03 c 0,-9.0306 -7.2608,-19.55 -16.291,-19.55 z" />
    <g
       id="g3213"
       style="fill:#ffffff;stroke-width:9.28004;stroke-miterlimit:4;stroke-dasharray:none"
       transform="matrix(1.6291,0,0,1.6291,-1390.6,-814.74)">
      <path
         id="path3201"
         sodipodi:nodetypes="sssssssss"
         style="fill:#ffffff;stroke-width:9.28004;stroke-miterlimit:4;stroke-dasharray:none"
         inkscape:connector-curvature="0"
         d="m 1080.3,768.8 h 31.307 c 12.456,0 16.531,11.607 22.483,22.611 l 70.701,130.71 c 14.28,26.399 -10.028,38.012 -22.484,38.012 h -172.71 c -12.456,0 -35.208,-14.489 -22.483,-38.012 l 70.701,-130.71 c 5.9522,-11.004 10.028,-22.611 22.483,-22.611 z" />
      <rect
         id="rect3203"
         style="fill:#ffffff;stroke-width:9.28004;stroke-miterlimit:4;stroke-dasharray:none"
         ry="0"
         height="117.7"
         width="64.230003"
         y="670.48999"
         x="1063.8" />
      <rect
         id="rect3205"
         style="fill:#ffffff;stroke-width:9.28004;stroke-miterlimit:4;stroke-dasharray:none"
         ry="4.3000002"
         height="75.528999"
         width="13.263"
         y="1058.1"
         x="-671.96002"
         transform="rotate(-90)" />
    </g>
    <path
       id="path3201-1"
       d="m 461.99,505.91 91.927,174.75 c 20.125,38.256 -14.442,54.746 -32.381,54.746 h -248.74 c -17.939,0 -50.781,-20.907 -32.381,-54.746 l 90.127,-165.75 c 79.68,31.256 108.66,-55.62 131.45,-8.999 z"
       sodipodi:nodetypes="csssscc"
       style="fill:#ffd42a;stroke-width:15.1181;stroke-miterlimit:4;stroke-dasharray:none"
       inkscape:connector-curvature="0" />
    <text
       xml:space="preserve"
       style="font-style:normal;font-weight:normal;font-size:383.551px;line-height:1.25;font-family:sans-serif;fill:#4d4d4d;fill-opacity:1;stroke:none;stroke-width:3.99532"
       x="798.34357"
       y="510.59155"
       id="text919"><tspan
         sodipodi:role="line"
         id="tspan917"
         x="798.34357"
         y="510.59155"
         style="font-style:normal;font-variant:normal;font-weight:bold;font-stretch:normal;font-size:383.551px;font-family:'Avenir Next';-inkscape-font-specification:'Avenir Next';fill:#4d4d4d;stroke-width:3.99532">aegir</tspan></text>
  </g>
  <g
     inkscape:groupmode="layer"
     id="layer4"
     inkscape:label="Front"
     style="display:inline"
     transform="translate(159.15176,166.6816)">
    <path
       id="path1288-7"
       style="fill:#fff6d5;fill-opacity:1;stroke:none;stroke-width:15.1181;stroke-linecap:round;stroke-linejoin:round;stroke-miterlimit:4;stroke-dasharray:none;stroke-opacity:1"
       d="m 130.28959,-23.539594 c -15.61921,0 -30.00808,8.531143 -37.81975,21.55428 -6.61429,10.793904 -8.488,24.436374 -4.72297,36.554774 2.32277,7.7246 6.74246,14.79969 12.68013,20.26207 1.94444,1.77802 3.94661,3.5449 5.36037,5.7987 4.5787,6.96333 5.27797,16.24109 2.03401,23.88587 -2.06685,4.88413 -5.90369,8.91889 -10.55028,11.43801 -9.96003,5.36949 -16.81316,16.06266 -17.57917,27.34809 -0.0706,0.96722 -0.1255,2.19941 -0.0974,3.27417 0.15391,9.20822 4.19666,18.28143 10.9989,24.5014 4.70568,4.35549 10.66156,7.33923 16.96372,8.51545 0.39691,0.0673 1.17056,0.2049 1.71646,0.26981 8.18344,1.11677 16.7531,-0.82484 23.59205,-5.47403 1.74909,-1.16123 3.38182,-2.49502 4.89071,-3.95399 0.33389,-0.33729 0.91637,-0.91083 1.32777,-1.37026 5.466,-5.86064 8.66607,-13.72267 8.98082,-21.71958 0.005,-0.34763 0.0372,-1.14 0.0254,-1.65703 -0.0147,-2.49538 -0.30175,-4.97416 -0.8323,-7.3462 -1.24636,-5.77675 -4.17429,-11.10054 -8.05981,-15.52232 -1.81646,-2.06868 -3.49981,-4.30404 -4.49017,-6.89814 -3.06435,-7.42733 -2.34887,-16.3199 1.88064,-23.15201 2.88679,-4.59131 7.40083,-8.06724 12.49099,-9.89103 13.22802,-5.69035 23.32307,-18.13635 26.07776,-32.28166 0.43087,-2.05583 0.69726,-4.14416 0.83133,-6.23989 0.0185,-0.45086 0.0579,-1.01475 0.0681,-1.55313 0.0528,-1.81033 -0.002,-3.62375 -0.16769,-5.42734 -0.0535,-0.48391 -0.13748,-1.32394 -0.22296,-1.94188 -1.79958,-13.261642 -9.79162,-25.579977 -21.31703,-32.432079 -7.20645,-4.355733 -13.36957,-6.542055 -24.05962,-6.542055 z"
       sodipodi:nodetypes="scccccccccccccccccccccccccccss" />
    <path
       id="path866"
       style="display:inline;fill:#ffffff;fill-opacity:1;stroke:none;stroke-width:15.1181;stroke-linejoin:round;stroke-miterlimit:4;stroke-dasharray:none;stroke-opacity:1"
       d="m 308.25195,203.73633 c -19.18702,0.9254 -37.78797,11.1548 -48.5285,27.13307 -10.35013,15.09231 -13.65411,34.8806 -8.42219,52.45452 2.05162,7.06683 5.371,13.75762 9.71436,19.69561 0.28878,0.37114 0.77651,1.04953 1.16007,1.52629 6.26472,8.08797 14.62773,14.49541 23.99423,18.58699 0.38497,0.16346 1.11174,0.48108 1.63926,0.68689 10.8189,4.3925 22.88434,5.71656 34.37752,3.58525 14.84933,-2.65036 28.70164,-10.81837 37.9603,-22.7628 6.55469,-8.30902 10.96863,-18.30282 12.64402,-28.75543 0.13719,-0.85238 0.29126,-1.99357 0.39843,-2.96289 0.14513,-1.35227 0.23841,-2.69267 0.29883,-3.94336 0.2388,-5.45935 -0.22618,-11.16635 -1.45125,-16.5855 -2.39818,-10.78719 -7.71822,-20.91052 -15.30925,-28.94853 -2.0704,-2.21529 -4.31057,-4.26965 -6.67505,-6.16714 -0.28759,-0.21286 -0.88906,-0.69871 -1.21276,-0.93767 -6.69658,-5.07803 -14.42232,-8.81094 -22.59192,-10.80257 -0.44448,-0.0961 -1.24196,-0.29334 -1.82903,-0.41013 -5.29766,-1.15738 -10.74978,-1.62278 -16.16707,-1.3926 z"
       transform="translate(-180.31,-244.48)" />
    <path
       id="path962"
       style="display:inline;fill:none;fill-opacity:1;stroke:#000000;stroke-width:15.118;stroke-linecap:round;stroke-linejoin:round;stroke-miterlimit:4;stroke-dasharray:none;stroke-opacity:1"
       d="m 160.97335,70.631377 c -2.8133,-1.255115 -5.74943,-2.284726 -8.79818,-3.059936 -7.51216,-2.159969 -15.32962,-3.101522 -23.12891,-3.30664 v 0 c -32.658641,0.04885 -62.578201,26.383511 -66.845711,58.746089 -3.7254,23.35011 5.62694,48.21599 23.85938,63.28321 -25.67896,12.95152 -37.87144,46.29989 -26.83008,72.79102 9.7755,26.27971 40.18234,42.29492 67.382821,35.4082 27.73318,-5.83833 48.16046,-34.14516 44.8457,-62.3164 -1.19038,-12.79342 -6.78055,-25.12133 -15.62109,-34.44532 8.86418,-3.30412 16.76895,-8.59834 23.35546,-15.21875 a 53.756985,53.756985 0 0 0 21.64454,4.55078 53.756985,53.756985 0 0 0 53.75781,-53.75781 53.756985,53.756985 0 0 0 -7.24304,-26.94822"
       transform="translate(-0.01010085,-113.40925)" />
    <path
       id="path962-1"
       style="display:inline;fill:#fff6d5;fill-opacity:1;stroke:#ffeeaa;stroke-width:15;stroke-linejoin:round;stroke-miterlimit:4;stroke-dasharray:none;stroke-opacity:1"
       d="m 127.38086,-35.068359 c -10.66931,0.388588 -21.03833,4.462413 -29.567423,10.79812 C 87.768153,-16.814831 80.131724,-5.9860695 77.09435,6.2003852 73.085772,21.921712 76.405923,39.35392 86.017645,52.440473 c 2.760124,3.814792 6.032198,7.236203 9.566374,10.337559 4.173256,4.375903 4.911371,11.367579 2.392543,16.757124 -1.632524,3.279255 -4.668842,5.615325 -7.922878,7.150724 -11.368687,6.841669 -18.809342,19.29811 -20.515823,32.34581 -0.100268,0.73005 -0.16091,1.44566 -0.217549,2.01909 -0.356467,4.33901 -0.06964,8.73001 0.876954,12.98047 0.07357,0.32169 0.232148,1.03414 0.361741,1.50355 0.374334,1.48474 0.926736,3.16603 1.40779,4.46129 2.974168,8.03407 8.483925,15.04747 15.44684,20.0121 9.344879,6.74835 21.332603,9.94626 32.770143,8.11787 10.27008,-1.56359 19.94073,-6.89574 26.62585,-14.86628 7.57231,-8.75743 11.80926,-20.51974 10.81146,-32.12111 -0.18503,-2.37152 -0.56575,-4.72712 -1.125,-7.03906 -0.10182,-0.4243 -0.30833,-1.20383 -0.46679,-1.75781 -2.02624,-7.11315 -5.83391,-13.681078 -10.88086,-19.076175 -4.37971,-5.916004 -3.3679,-15.094695 2.20875,-19.89865 2.77773,-2.288759 6.40446,-3.039015 9.4676,-4.837666 4.98466,-2.605321 9.25978,-6.308362 13.42606,-10.037084 4.49192,-3.830369 11.30372,-4.197292 16.44615,-1.489934 13.04001,5.145187 28.7603,2.548339 39.47253,-6.489736 9.28104,-7.645396 14.84864,-19.671846 14.3849,-31.718606 -0.17266,-6.142762 -1.81322,-12.2282371 -4.6892,-17.6552771 -0.16589,-0.31115505 -0.56106,-1.03670883 -0.83596,-1.49397003 -5.69134,-9.82092987 -15.87285,-16.79880787 -27.01192,-18.83379387 -7.26806,-1.402141 -14.85768,-0.493884 -21.76927,2.063271 -2.01129,0.822597 -4.12382,1.505885 -6.32308,1.468503 -4.34376,0.05382 -8.62042,-1.927677 -11.4582,-5.205923 -6.57279,-6.632261 -15.3382,-10.871376 -24.47356,-12.57446 -5.46933,-1.084918 -11.02986,-1.734781 -16.61238,-1.630658 z" />
  </g>
  <metadata
     id="metadata75">
    <rdf:RDF>
      <cc:Work>
        <dc:format>image/svg+xml</dc:format>
        <dc:type
           rdf:resource="http://purl.org/dc/dcmitype/StillImage" />
        <cc:license
           rdf:resource="http://creativecommons.org/publicdomain/zero/1.0/" />
        <dc:publisher>
          <cc:Agent
             rdf:about="http://openclipart.org/">
            <dc:title>Openclipart</dc:title>
          </cc:Agent>
        </dc:publisher>
        <dc:title></dc:title>
      </cc:Work>
      <cc:License
         rdf:about="http://creativecommons.org/publicdomain/zero/1.0/">
        <cc:permits
           rdf:resource="http://creativecommons.org/ns#Reproduction" />
        <cc:permits
           rdf:resource="http://creativecommons.org/ns#Distribution" />
        <cc:permits
           rdf:resource="http://creativecommons.org/ns#DerivativeWorks" />
      </cc:License>
    </rdf:RDF>
  </metadata>
</svg>
